<svg xmlns="http://www.w3.org/2000/svg" width="383.484" height="251.282" viewBox="0 0 383.484 251.282">
  <g id="nosearch" transform="translate(-7475 -3373)">
    <g id="nosearch-2" data-name="nosearch" transform="translate(7409.38 3317.266)">
      <g id="Background_Complete" data-name="Background Complete" transform="translate(65.62 55.734)">
        <g id="Group_375" data-name="Group 375" transform="translate(291.804 28.138)">
          <path id="Path_362" data-name="Path 362" d="M622.253,131.742l-6,29.042-3.857-3.764-6.57,4.682-5.018-6.23-11.259,8.184-9.615-16.087-10.731,6.284-4.254-5.868-13.625,7.677-4.1-8.775,9.55-46.255,51.2,10.571Z" transform="translate(-537.223 -100.634)" fill="#ebebeb"/>
          <path id="Path_363" data-name="Path 363" d="M642.1,117.5l14.275,20.534-17.758-3.666Z" transform="translate(-571.34 -106.932)" fill="#dbdbdb"/>
          <path id="Path_364" data-name="Path 364" d="M609.02,197.6l-8.8,42.61-68.962-14.234,8.729-42.271,4.1,8.775,13.625-7.677,4.254,5.868L572.7,184.39l9.615,16.087,11.259-8.184,5.018,6.23,6.569-4.682Z" transform="translate(-531.262 -131.648)" fill="#ebebeb"/>
        </g>
        <g id="Group_377" data-name="Group 377" transform="translate(194.991)">
          <path id="Path_365" data-name="Path 365" d="M452.638,144.833l-70.281,4.349-5.583-90.219,52.184-3.229L448.119,71.8Z" transform="translate(-376.774 -55.734)" fill="#ebebeb"/>
          <path id="Path_366" data-name="Path 366" d="M460.045,55.734,479.207,71.8l-18.1,1.12Z" transform="translate(-407.862 -55.734)" fill="#dbdbdb"/>
          <g id="Group_376" data-name="Group 376" transform="translate(23.628 21.606)">
            <path id="Path_367" data-name="Path 367" d="M423.551,129.306l-.272-2.035c-.709-4.218.446-8.935,4.112-13.871,3.3-4.364,5.1-7.54,4.9-11.076-.224-4.009-2.889-6.541-7.846-6.342a13.991,13.991,0,0,0-7.8,2.881l-2.164-4.847c2.489-2.032,6.9-3.54,11.064-3.773,9.039-.506,13.439,4.845,13.774,10.819.3,5.345-2.472,9.364-5.993,14.056-3.229,4.281-4.293,7.81-3.833,11.805l.193,2.039Zm-1.113,11.1a4.654,4.654,0,0,1,4.439-5.216c2.751-.154,4.752,1.784,4.914,4.692a4.688,4.688,0,1,1-9.353.523Z" transform="translate(-414.478 -90.211)" fill="#dbdbdb"/>
          </g>
        </g>
        <g id="Group_378" data-name="Group 378" transform="translate(28.75 21.574)">
          <path id="Path_368" data-name="Path 368" d="M134.674,126.2,127.6,123l-.981,2.166a1.846,1.846,0,0,1-1.612,1.074,10.74,10.74,0,0,0-1.156.113,1.844,1.844,0,0,1-1.785-.739l-1.385-1.932-6.315,4.525,1.384,1.932a1.846,1.846,0,0,1,.126,1.929,10.813,10.813,0,0,0-.479,1.058,1.844,1.844,0,0,1-1.535,1.181l-2.366.233.763,7.728,2.374-.236a1.849,1.849,0,0,1,1.733.865c.1.16.209.318.321.474s.226.308.345.456a1.842,1.842,0,0,1,.263,1.911l-.988,2.181,7.072,3.207.985-2.17a1.845,1.845,0,0,1,1.614-1.072,10.959,10.959,0,0,0,1.151-.112,1.843,1.843,0,0,1,1.784.739l1.385,1.933,6.315-4.524-1.385-1.933a1.846,1.846,0,0,1-.127-1.927,10.749,10.749,0,0,0,.476-1.055,1.846,1.846,0,0,1,1.535-1.183l2.371-.235-.763-7.728-2.373.234a1.843,1.843,0,0,1-1.727-.864q-.155-.241-.324-.477t-.345-.456a1.848,1.848,0,0,1-.263-1.92Zm-4.012,7.15a6.361,6.361,0,1,1-8.876-1.47A6.357,6.357,0,0,1,130.662,133.353Z" transform="translate(-111.497 -102.419)" fill="#ebebeb"/>
          <path id="Path_369" data-name="Path 369" d="M654.127,291.713l-4.712,2.719.833,1.442a1.291,1.291,0,0,1-.046,1.356,7.5,7.5,0,0,0-.407.7,1.294,1.294,0,0,1-1.15.715H646.98v5.443h1.665a1.294,1.294,0,0,1,1.15.715,7.487,7.487,0,0,0,.407.7,1.291,1.291,0,0,1,.046,1.356l-.833,1.442,4.712,2.719.834-1.449a1.3,1.3,0,0,1,1.2-.634q.2.01.4.01c.133,0,.268,0,.4-.01a1.291,1.291,0,0,1,1.2.63L659,311.03l4.712-2.719-.833-1.446a1.292,1.292,0,0,1,.048-1.356,7.6,7.6,0,0,0,.406-.7,1.293,1.293,0,0,1,1.149-.714h1.666V298.65h-1.666a1.293,1.293,0,0,1-1.149-.714,7.441,7.441,0,0,0-.406-.7,1.293,1.293,0,0,1-.048-1.357l.833-1.446L659,291.713l-.835,1.447a1.292,1.292,0,0,1-1.2.631c-.133-.007-.268-.01-.4-.01s-.268,0-.4.01a1.3,1.3,0,0,1-1.2-.633Zm2.435,5.2a4.457,4.457,0,1,1-4.459,4.454A4.453,4.453,0,0,1,656.562,296.915Z" transform="translate(-311.409 -165.406)" fill="#ebebeb"/>
          <path id="Path_370" data-name="Path 370" d="M167.614,90.789l-4.322,3.3,1.012,1.323a1.294,1.294,0,0,1,.13,1.35,7.528,7.528,0,0,0-.313.751,1.292,1.292,0,0,1-1.047.858l-1.652.215.7,5.4,1.652-.215a1.293,1.293,0,0,1,1.232.561,7.529,7.529,0,0,0,.494.647,1.291,1.291,0,0,1,.221,1.339l-.64,1.538,5.023,2.088.64-1.545a1.3,1.3,0,0,1,1.109-.783q.2-.016.4-.042t.4-.061a1.29,1.29,0,0,1,1.266.47l1.02,1.332,4.322-3.3-1.014-1.327a1.293,1.293,0,0,1-.128-1.351,7.383,7.383,0,0,0,.312-.748,1.3,1.3,0,0,1,1.048-.857l1.652-.215-.7-5.4-1.652.215a1.3,1.3,0,0,1-1.232-.56,7.465,7.465,0,0,0-.493-.643,1.292,1.292,0,0,1-.222-1.339l.64-1.542-5.023-2.088L171.8,91.7a1.294,1.294,0,0,1-1.105.781c-.133.01-.267.024-.4.042s-.265.038-.4.061a1.3,1.3,0,0,1-1.273-.473Zm3.086,4.844a4.457,4.457,0,1,1-3.846,4.993A4.453,4.453,0,0,1,170.7,95.633Z" transform="translate(-130.136 -90.16)" fill="#ebebeb"/>
        </g>
        <g id="Group_384" data-name="Group 384" transform="translate(0 87.86)">
          <g id="Group_379" data-name="Group 379" transform="translate(14.372)">
            <path id="Path_371" data-name="Path 371" d="M112.746,271.667a171.44,171.44,0,0,0-.249-18.2,231.715,231.715,0,0,0-5.7-37.069c-1.589-6.86-3.546-13.6-5.586-20.341-.061-.2-.386-.146-.33.066,6.307,23.748,11.481,48.255,11.125,72.942-.1,6.909-.9,13.695-1.555,20.56-.018.184.285.257.326.068A103.157,103.157,0,0,0,112.746,271.667Z" transform="translate(-93.154 -195.935)" fill="#ebebeb"/>
            <path id="Path_372" data-name="Path 372" d="M96.281,196.242s-9.554,24.251-7.415,29.95,6.549,6.917,6.549,6.917-5.846,8.346-1.76,16.174,13.161,7.458,13.764,16.333C107.419,265.616,107.924,228.5,96.281,196.242Z" transform="translate(-88.554 -196.05)" fill="#ebebeb"/>
            <path id="Path_373" data-name="Path 373" d="M110.149,253.336a.188.188,0,0,0-.009-.127,222.115,222.115,0,0,0-9.268-48.785c-.014-.047-.091-.031-.078.017q2.839,10.641,5.016,21.4a10.551,10.551,0,0,0-4.56-2.543.026.026,0,0,0-.018.049,12.073,12.073,0,0,1,4.709,3.147q.419,2.107.812,4.219c-2.135-2.386-5.1-3.57-8.059-4.7a.035.035,0,0,0-.023.065c3.086,1.256,6.159,2.875,8.25,5.534q1.093,6.037,1.919,12.114a11.552,11.552,0,0,0-5.7-3.265c-.066-.016-.1.082-.036.1a12.035,12.035,0,0,1,5.778,3.7.157.157,0,0,0,.036.027q.287,2.138.54,4.28a14.712,14.712,0,0,0-3.993-2.408c-.039-.016-.06.044-.021.061a13.733,13.733,0,0,1,4,2.647c.016.016.034.014.051.02.159,1.359.318,2.717.455,4.078a19.411,19.411,0,0,0-8.1-5.786c-.063-.024-.095.071-.034.1a21.115,21.115,0,0,1,7.986,6.145.177.177,0,0,0,.2.063q.309,3.13.545,6.271c0,.028.049.031.048,0Q110.411,256.55,110.149,253.336Z" transform="translate(-92.323 -199.094)" fill="#fff"/>
            <path id="Path_374" data-name="Path 374" d="M101.308,229.642a11.947,11.947,0,0,0-5.74-1.789c-.048,0-.051.066-.005.073a22.736,22.736,0,0,1,5.676,1.854C101.32,229.814,101.379,229.692,101.308,229.642Z" transform="translate(-91.158 -207.851)" fill="#fff"/>
            <path id="Path_375" data-name="Path 375" d="M104.009,270.8a12.086,12.086,0,0,0-4.309-1.473c-.053-.009-.057.072-.006.081a16.149,16.149,0,0,1,4.262,1.495C104.016,270.932,104.065,270.835,104.009,270.8Z" transform="translate(-92.699 -223.334)" fill="#fff"/>
          </g>
          <g id="Group_380" data-name="Group 380" transform="translate(34.478 30.023)">
            <path id="Path_376" data-name="Path 376" d="M145.242,244.64a64.92,64.92,0,0,0-11.059,9.667,39.706,39.706,0,0,0-7.756,13.152,98.327,98.327,0,0,0-5.777,31.456,76.4,76.4,0,0,0,1.7,17.69.168.168,0,0,0,.33-.062,99.218,99.218,0,0,1,.174-30.923c1.643-10.032,4.219-20.946,10.6-29.1,3.472-4.44,7.8-7.932,12.082-11.542C145.76,244.789,145.473,244.477,145.242,244.64Z" transform="translate(-120.638 -244.123)" fill="#ebebeb"/>
            <path id="Path_377" data-name="Path 377" d="M122.9,291.411a59.447,59.447,0,0,1,8.061-10.3c4.78-4.778,8.805-8.175,9.426-11.335s-4.788-5.488-4.788-5.488,6.614,1.188,8.424-1.588,2.683-18.853,2.683-18.853-12.033,8.591-17.639,20.634S122.9,291.411,122.9,291.411Z" transform="translate(-121.483 -243.843)" fill="#ebebeb"/>
            <path id="Path_378" data-name="Path 378" d="M142.512,250.384c-5.063,4.973-10.158,10.272-13.14,16.8a64.493,64.493,0,0,0-2.658,6.929s0,.008,0,.011c-.154.476-.309.949-.454,1.428a.18.18,0,0,0-.024.078,136.384,136.384,0,0,0-3.418,14.854c-.006.032.042.048.049.016.519-2.509,1.09-5.042,1.73-7.567a.177.177,0,0,0,.071-.014,10.527,10.527,0,0,1,3.158-.8c.072-.006.066-.132-.007-.128a11.839,11.839,0,0,0-3.123.57c.583-2.277,1.217-4.548,1.929-6.786a33.592,33.592,0,0,1,7.137-.933c.024,0,.029-.037,0-.038a26.983,26.983,0,0,0-7.017.6c.124-.384.253-.766.382-1.148a36.133,36.133,0,0,1,4.749-.8c.029,0,.027-.052,0-.051a23.059,23.059,0,0,0-4.65.565c.655-1.936,1.362-3.846,2.147-5.707a34.576,34.576,0,0,1,2.272-4.411,29.057,29.057,0,0,1,3.852-.687c.037,0,.033-.061,0-.064a10.39,10.39,0,0,0-3.6.356c.633-1.023,1.3-2.023,2.01-2.994h0c2.7-.6,5.434-1.152,8.194-.634.048.009.065-.071.018-.084a17.252,17.252,0,0,0-7.85.225c.285-.379.577-.754.872-1.127a17.9,17.9,0,0,1,5.042-.792.028.028,0,0,0,.005-.056,13.158,13.158,0,0,0-4.7.417c2.232-2.772,4.7-5.375,7.132-7.949C142.72,250.335,142.632,250.266,142.512,250.384Z" transform="translate(-121.45 -246.262)" fill="#fff"/>
            <path id="Path_379" data-name="Path 379" d="M152.566,267.836a11,11,0,0,0-2.393-.083.086.086,0,0,0,.009.171c.792.023,1.584-.036,2.376.007A.047.047,0,0,0,152.566,267.836Z" transform="translate(-131.639 -252.755)" fill="#fff"/>
            <path id="Path_380" data-name="Path 380" d="M137.993,292.8a10.841,10.841,0,0,0-3.709.745c-.029.011-.013.06.018.053,1.225-.291,2.463-.41,3.7-.614A.093.093,0,0,0,137.993,292.8Z" transform="translate(-125.727 -262.118)" fill="#fff"/>
            <path id="Path_381" data-name="Path 381" d="M135.11,284.2a7.864,7.864,0,0,0-1.574.142.048.048,0,0,0,.005.094,7.9,7.9,0,0,0,1.577-.074A.082.082,0,0,0,135.11,284.2Z" transform="translate(-125.439 -258.906)" fill="#fff"/>
          </g>
          <g id="Group_381" data-name="Group 381" transform="translate(0 47.327)">
            <path id="Path_382" data-name="Path 382" d="M66.453,271.886a54.663,54.663,0,0,1,11.184,5.267A33.42,33.42,0,0,1,86.953,286,82.74,82.74,0,0,1,98.9,310.126a64.331,64.331,0,0,1,2.711,14.71.142.142,0,0,1-.282.026,83.532,83.532,0,0,0-7.288-24.985c-3.648-7.739-8.257-15.976-15.3-21.1-3.836-2.79-8.147-4.616-12.446-6.548C66.068,272.126,66.228,271.808,66.453,271.886Z" transform="translate(-65.831 -271.612)" fill="#ebebeb"/>
            <path id="Path_383" data-name="Path 383" d="M95.881,304.449a50.08,50.08,0,0,0-8.9-6.475c-4.973-2.762-9.015-4.58-10.249-6.994s2.606-5.548,2.606-5.548-5.079,2.49-7.185.662-6.529-14.637-6.529-14.637,11.724,4.171,19.044,12.621S95.881,304.449,95.881,304.449Z" transform="translate(-65.62 -271.456)" fill="#ebebeb"/>
            <path id="Path_384" data-name="Path 384" d="M98.39,303.484c-5.864-11.006-13.688-20.962-24.409-27.534a0,0,0,0,0-.005.007,53.864,53.864,0,0,1,7.847,6.141,12.427,12.427,0,0,0-6.3,1.33.037.037,0,0,0,.032.066,17.269,17.269,0,0,1,6.485-1.1.131.131,0,0,0,.073-.028q.571.541,1.127,1.1a19.943,19.943,0,0,0-3.368.447.024.024,0,0,0,.009.046,17.2,17.2,0,0,1,3.558-.293,73.623,73.623,0,0,1,5.53,6.279,5.623,5.623,0,0,0-2.355.171.045.045,0,0,0,.017.089,12.591,12.591,0,0,1,2.514-.034c.321.408.645.814.96,1.228a22.743,22.743,0,0,0-7.116.692.028.028,0,0,0,.011.054,28.651,28.651,0,0,1,7.308-.474c.3.4.582.8.875,1.206a15.433,15.433,0,0,0-4.236.485c-.053.013-.038.1.016.085a16.2,16.2,0,0,1,4.385-.342c1.261,1.738,2.469,3.514,3.63,5.312a3.958,3.958,0,0,0-1.859.112.026.026,0,0,0,.01.051,8.1,8.1,0,0,1,2.012.095q1.566,2.438,3.021,4.919C98.242,303.735,98.467,303.63,98.39,303.484Z" transform="translate(-68.739 -273.134)" fill="#fff"/>
            <path id="Path_385" data-name="Path 385" d="M96.339,305.3a9.1,9.1,0,0,0-3.406.417c-.031.01-.024.057.009.051a26.352,26.352,0,0,1,3.387-.347A.06.06,0,0,0,96.339,305.3Z" transform="translate(-75.809 -284.083)" fill="#fff"/>
            <path id="Path_386" data-name="Path 386" d="M81.1,283.9a5.844,5.844,0,0,0-1.57.092c-.061.009-.042.1.018.093.516-.055,1.026-.036,1.543-.051A.067.067,0,0,0,81.1,283.9Z" transform="translate(-70.8 -276.095)" fill="#fff"/>
          </g>
          <g id="Group_383" data-name="Group 383" transform="translate(18.919 79.528)">
            <g id="Group_382" data-name="Group 382" transform="translate(0 2.459)">
              <path id="Path_387" data-name="Path 387" d="M122.273,361.492H95.81l3.773-27.641.964-7.087h16.988l.964,7.087Z" transform="translate(-95.81 -326.764)" fill="#dbdbdb"/>
              <path id="Path_388" data-name="Path 388" d="M120.748,333.851H101.831l.964-7.087h16.988Z" transform="translate(-98.058 -326.764)" fill="#c7c7c7"/>
            </g>
            <rect id="Rectangle_359" data-name="Rectangle 359" width="21.847" height="6.002" transform="translate(2.308)" fill="#dbdbdb"/>
          </g>
        </g>
      </g>
      <g id="Shadow" transform="translate(79.806 267.636)">
        <g id="Group_388" data-name="Group 388" transform="translate(0)">
          <ellipse id="Ellipse_999" data-name="Ellipse 999" cx="179.693" cy="19.69" rx="179.693" ry="19.69" fill="#ebebeb"/>
        </g>
      </g>
    </g>
    <g id="Group_613" data-name="Group 613" transform="translate(-425.839 138.402)">
      <g id="Group_611" data-name="Group 611" transform="translate(8009.446 3301.772)">
        <g id="Group_544" data-name="Group 544" transform="translate(0 0.203)">
          <path id="Path_4807" data-name="Path 4807" d="M410.735,232.71l-4.867,168.224H277.02l4.5-168.224Z" transform="translate(-277.02 -232.71)" fill="#ffc727"/>
          <path id="Path_4808" data-name="Path 4808" d="M437.078,400.938l21.088-9.223-16.217-159Z" transform="translate(-308.234 -232.71)" fill="#e4b222"/>
        </g>
        <g id="Group_545" data-name="Group 545" transform="translate(30.818 0)">
          <path id="Path_4809" data-name="Path 4809" d="M349.723,280.7c18.928,0,34.339-21.627,34.429-48.244H381.9c-.09,25.381-14.489,46-32.181,46s-32.08-20.615-32.17-46H315.3C315.394,259.076,330.8,280.7,349.723,280.7Z" transform="translate(-315.304 -232.458)"/>
        </g>
        <path id="Path_4810" data-name="Path 4810" d="M458.167,429.29l-13.806-3.9-7.282,13.125Z" transform="translate(-308.234 -270.083)" fill="#123472" opacity="0.1"/>
      </g>
      <g id="Group_612" data-name="Group 612" transform="translate(8040.159 3389.917)">
        <circle id="Ellipse_1000" data-name="Ellipse 1000" cx="6.402" cy="6.402" r="6.402"/>
        <circle id="Ellipse_1001" data-name="Ellipse 1001" cx="6.402" cy="6.402" r="6.402" transform="translate(50.61 0)"/>
        <path id="Path_2533" data-name="Path 2533" d="M382.125,332.278l-.351-.67c-.032-.061-3.339-6.174-9.994-6.174-6.069,0-7.549,5.756-7.609,6l-.18.733-1.468-.355.177-.734c.017-.072,1.8-7.159,9.08-7.159,7.586,0,11.185,6.7,11.334,6.985l.352.67Z" transform="translate(-341.222 -318.452)"/>
      </g>
    </g>
  </g>
</svg>
